# xmcd
#
# Track frame offsets: 
#        150
#        18668
#        37817
#        55830
#        71499
#        88025
#        106919
#        127757
#        148052
#        168030
#        184058
#        198139
#        215874
#
# Disc length: 3153 seconds
#
# Revision: 0
# Processed by: cddbd v1.5.2PL0 Copyright (c) Steve Scherf et al.
# Submitted via: ExactAudioCopy v0.95b3
#
DISCID=ae0c4f0d
DTITLE=Loiri - Ivalo
DYEAR=2006
DGENRE=
TTITLE0=T‰st‰ asti aikaa
TTITLE1=Kun olet poissa
TTITLE2=Myrskyp‰‰sky
TTITLE3=Pyh‰ toimitus
TTITLE4=Aavaa preeriaa
TTITLE5=Hetken tie on kevyt
TTITLE6=Olkinainen
TTITLE7=Tyhj‰‰
TTITLE8=Ihmisen ik‰v‰ toisen luo
TTITLE9=Palava p‰‰
TTITLE10=Kuka kertoisi minulle
TTITLE11=Pelasta maailma
TTITLE12=Sis‰lt‰ni portin lˆysin
EXTD=
EXTT0=
EXTT1=
EXTT2=
EXTT3=
EXTT4=
EXTT5=
EXTT6=
EXTT7=
EXTT8=
EXTT9=
EXTT10=
EXTT11=
EXTT12=
PLAYORDER=
